Coordinates
version=1
nRows=6
nColumns=36
inDegrees=yes

Units are S.I. units (second, meters, Newtons, ...)
If the header above contains a line with 'inDegrees', this indicates whether rotational values are in degrees (yes) or radians (no).

endheader
time	pelvis_tilt	pelvis_list	pelvis_rotation	pelvis_tx	pelvis_ty	pelvis_tz	hip_flexion_r	hip_adduction_r	hip_rotation_r	knee_angle_r	knee_angle_r_beta	ankle_angle_r	subtalar_angle_r	mtp_angle_r	hip_flexion_l	hip_adduction_l	hip_rotation_l	knee_angle_l	knee_angle_l_beta	ankle_angle_l	subtalar_angle_l	mtp_angle_l	lumbar_extension	lumbar_bending	lumbar_rotation	arm_flex_r	arm_add_r	arm_rot_r	elbow_flex_r	pro_sup_r	arm_flex_l	arm_add_l	arm_rot_l	elbow_flex_l	pro_sup_l
      0.00000000	      0.05476756	     -1.01109792	      0.76225513	      0.08424870	      1.14424416	      0.07747287	      6.20960929	      0.43583061	     -3.98618572	      6.98478365	      0.12190747	     10.67972150	      4.96069725	     -6.86593387	      4.09881983	     -1.52379665	     -2.14561165	      5.32224219	      0.09289065	     11.31145935	      7.87350185	     -6.86593387	     -0.65835309	      2.40647952	     -5.08172749	     -4.74650976	    -23.59779128	     32.95303716	     97.35126394	     89.49956349	    -18.40879121	    -18.44146370	     21.69400745	     95.02090890	     86.90465776
      0.01666670	     -0.89939392	     -0.30305951	      1.16553157	      0.08578481	      1.14662445	      0.07680045	      6.51233849	     -0.02154317	     -4.13476448	      6.03069322	      0.10525545	     11.49389428	      4.64102393	     -6.91817171	      4.91822581	     -0.17900881	     -2.04612589	      4.77249586	      0.08329577	     10.57709866	      8.04576712	     -6.91817171	      1.49992266	      1.41702024	     -4.97692591	     -4.93202162	    -23.88759733	     33.07519727	     96.83567217	     88.17154305	    -18.84829219	    -19.08542259	     22.32434920	     94.52606817	     85.68335967
      0.03333330	     -1.60741091	      0.70687306	      1.22795807	      0.08844678	      1.14534443	      0.07736811	      6.52749454	     -0.86758452	     -5.82084809	      5.03173791	      0.08782039	     11.75590308	      6.24706866	     -6.96693133	      5.22604184	      0.83798793	     -3.76371840	      4.38851967	      0.07659412	     10.12303674	      9.94529317	     -6.96693133	      2.89696819	      0.10727221	     -3.92655426	     -4.59043392	    -23.12780004	     33.60751205	     95.69884421	     88.03776825	    -17.84455908	    -21.11280009	     25.37096290	     95.56876663	     85.70206996
      0.05000000	     -1.70945408	      1.23282205	      1.13633510	      0.08853558	      1.14314135	      0.07680119	      6.35978227	     -1.55053465	     -6.54333811	      4.43347583	      0.07737875	     11.98099459	      6.71774074	     -7.07664433	      4.91163176	      1.47098724	     -3.63348939	      3.79921767	      0.06630886	     10.02898793	     10.71228213	     -7.07664433	      3.06493924	     -0.41772721	     -1.11983454	     -7.61174615	    -22.47663010	     29.64022383	     96.32023691	     92.78424503	    -14.64160619	    -21.80570977	     28.46108622	     94.39473559	     90.42040871
      0.06666670	     -1.76899097	      1.49698012	      1.02981877	      0.08949851	      1.13972125	      0.07798555	      6.22430848	     -1.78827296	     -6.69452152	      3.79489052	      0.06623333	     12.12355460	      6.90078821	     -7.16058510	      4.69329777	      1.71644952	     -3.52369038	      3.38283138	      0.05904155	     10.05779914	     10.95630046	     -7.16058510	      3.16257341	     -0.75402474	     -0.65575101	     -7.79838363	    -22.20829539	     29.41799068	     96.18281439	     96.25047231	    -14.32575856	    -21.41756210	     28.13355261	     95.00302883	     93.46408442
      0.08333330	     -1.68664831	      1.74408282	      1.02028085	      0.08970218	      1.14156875	      0.07843273	      5.91507332	     -1.93756318	     -6.61267122	      3.38560436	      0.05908994	     12.05355635	      7.29227651	     -7.17702090	      4.55051688	      1.93500859	     -3.20989539	      3.11350015	      0.05434083	     10.01359365	     10.75926035	     -7.17702090	      3.14703212	     -0.99371160	     -0.08451194	     -7.08539197	    -21.38996822	     29.73089587	     94.99227068	     95.79027372	    -13.83952083	    -20.85990972	     28.49857837	     95.33407588	     93.09815529
